<?xml version="1.0" encoding="UTF-8"?><svg id="Lag_1" xmlns="http://www.w3.org/2000/svg" width="105" height="115" viewBox="0 0 105 115"><defs><style>.cls-1{fill:#9959f6;}.cls-1,.cls-2{stroke-width:0px;}.cls-2{fill:#000;}</style></defs><g id="facebook_gul"><path class="cls-1" d="M91.56,90.29l-51.84,22.51c-8.4,3.65-18.15-.18-21.78-8.54L1.92,54.14c-3.63-8.36,1.58-25.34,14.1-31.13L60.59,3.53c8.4-3.65,18.69-5.62,26.75,7.69l15.89,58.14c3.63,8.36-3.27,17.28-11.66,20.93Z"/><g id="facebook_steger"><path class="cls-2" d="M71.62,33.98c-2.12-6.07-5.67-12.29-12.03-14.62-5.68-2.09-12.53-.24-15.05,5.59s-.29,12.96,1.3,18.93c2.13,8.02,4.15,16.06,6.06,24.13,2.16,9.11,4.17,18.25,6.05,27.43.39,1.89,3.28,1.09,2.89-.8-3.03-14.8-6.43-29.53-10.19-44.17-.93-3.62-1.9-7.22-2.85-10.83-.73-2.75-1.36-5.57-1.4-8.43-.03-2.5.43-5.12,2.11-7.07,1.77-2.05,4.41-2.78,7.05-2.62,7.05.45,11.06,7.27,13.15,13.25.63,1.81,3.53,1.03,2.89-.8h0Z"/><path class="cls-2" d="M33.9,60.87c2.18-.54,4.29-1.36,6.39-2.17,8.23-3.18,16.45-6.35,24.68-9.53"/><path class="cls-2" d="M34.3,62.31c5.29-1.36,10.38-3.71,15.47-5.67s10.4-4.01,15.6-6.02c1.78-.69,1.01-3.59-.8-2.89-5.2,2.01-10.4,4.01-15.6,6.02s-10.18,4.31-15.47,5.67c-1.87.48-1.08,3.38.8,2.89h0Z"/></g></g></svg>