<?xml version="1.0" encoding="UTF-8"?><svg id="Lag_1" xmlns="http://www.w3.org/2000/svg" width="115" height="100" viewBox="0 0 115 100"><defs><style>.cls-1{fill:#9959f6;}.cls-1,.cls-2{stroke-width:0px;}.cls-2{fill:#000;}</style></defs><g id="Instagram_gul"><path class="cls-1" d="M64.41,96.65l-51.96-18.7c-8.42-3.03-12.94-11.89-10.1-19.79L23.5,14.57c2.84-7.9,17.66-15.76,30.44-11.48l44.77,16c8.42,3.03,17.1,8.4,14.22,22.44l-26.49,48.82c-2.84,7.9-13.62,9.33-22.04,6.3Z"/><g id="insta_streger"><path class="cls-2" d="M45.65,41.54c-3.75,5.2-7.48,10.49-9.81,16.5-1.88,4.86-3.67,12.04-.2,16.63s10.9,3.68,15.61,1.4c5.17-2.5,9.16-6.99,12.46-11.58,4.45-6.19,8.16-12.95,11.25-19.9.78-1.75-1.81-3.28-2.59-1.51-2.53,5.68-5.48,11.16-8.86,16.38-2.87,4.42-6.09,8.86-10.4,11.99-3.56,2.59-9.48,5.16-13.72,2.63-4.59-2.74-2.36-10.54-.95-14.45,2.19-6.06,6.06-11.4,9.8-16.58,1.13-1.57-1.47-3.07-2.59-1.51h0Z"/><path class="cls-2" d="M71.54,52.94c3.9.87,7.58,2.49,11.24,4.09,4.22,1.85,8.43,3.7,12.65,5.56"/><path class="cls-2" d="M71.14,54.38c4.02.93,7.78,2.58,11.54,4.23,4,1.76,8,3.51,12,5.27,1.75.77,3.28-1.82,1.51-2.59-4.14-1.82-8.29-3.64-12.43-5.46-3.85-1.69-7.71-3.39-11.82-4.34-1.88-.43-2.68,2.46-.8,2.89h0Z"/><path class="cls-2" d="M98.48,33.88c-.05,1.47-1.29,2.59-1.96,3.91-.67,1.31-.22,3.51,1.26,3.41.88-.06,1.45-.94,1.78-1.76.53-1.31.84-2.71.91-4.12.03-.59-.01-1.25-.43-1.67s-1.33-.29-1.4.29"/><path class="cls-2" d="M96.98,33.88c-.02.38.09-.32,0,.04-.02.07-.03.14-.05.21-.02.09-.06.17-.08.26-.06.21.17-.32,0,0-.18.36-.38.69-.61,1.03-.48.71-.98,1.39-1.28,2.19-.52,1.39-.28,3.22.79,4.3.69.69,1.73.93,2.67.69s1.73-1.05,2.19-1.92.76-1.8.98-2.73.39-1.98.37-2.97c-.02-1.25-.57-2.62-1.89-2.98-1.17-.32-2.65.25-2.9,1.54-.15.77.21,1.66,1.05,1.85.74.17,1.69-.22,1.85-1.05.04-.23-.07.12-.08.14-.08.13-.2.26-.33.33-.01,0-.37.13-.15.06.11-.03.24,0-.16.02.05,0,.21.02-.04-.01-.31-.04.13.1-.14-.04s.08.14-.12-.07c-.03-.03-.29-.33-.12-.11.15.19-.1-.02-.02-.06,0,0,.04.15.04.16.08.19-.01-.28,0-.07,0,.08.01.15.01.23,0,.34-.02.69-.05,1.03,0,.04-.04.33-.01.15s-.02.11-.02.15c-.03.16-.05.33-.09.49-.08.39-.17.78-.29,1.17-.1.34-.22.67-.35,1-.05.14,0,.22.01-.03,0,.05-.08.16-.09.2-.07.13-.14.26-.22.38-.03.04-.08.15-.12.18.24-.19.1-.11.03-.06-.02.02-.15.14-.15.15,0-.03.31-.18.06-.05-.04.02-.1.05-.13.07-.14.13.26-.1.08-.04-.19.06.28-.02.1,0-.22.01-.03-.08.12.04-.02-.02-.13-.03-.14-.03-.1-.03-.23-.11.16.07-.03-.01-.06-.04-.09-.05-.15-.09.23.24.13.1-.02-.03-.07-.08-.1-.1-.1-.06.11.13.12.16-.01-.05-.21-.43-.11-.16s-.03-.11-.05-.17c-.02-.09-.03-.21-.06-.29.11.24.03.3.02.14,0-.06,0-.12,0-.18,0-.13.01-.26.01-.4,0-.19-.08.32-.02.14.01-.04.02-.09.03-.13.03-.11.06-.22.09-.33.06-.19.05.08-.06.12.01,0,.1-.2.09-.18.07-.13.15-.27.23-.4.36-.59.79-1.14,1.14-1.74.43-.76.7-1.56.75-2.43.04-.78-.72-1.53-1.5-1.5-.85.04-1.45.66-1.5,1.5h0Z"/><path class="cls-1" d="M98.1,38.56l.36-2.57c.03-.25.06-.52-.07-.73s-.51-.27-.62-.04c.14-.26.24-.54.28-.83-.83,1.02-1.32,2.3-1.41,3.61.33-1.52.71-3.14,1.83-4.21-.12,1.45-1.62,2.37-2.21,3.7.35-1.07.95-2.05,1.73-2.86"/></g><path class="cls-2" d="M48.52,43.13c1.86-2.78,3.92-5.41,6.19-7.87s4.54-4.78,7.28-6.54c2.53-1.63,5.66-2.78,8.69-2.04,2.56.63,4.99,3.02,4.52,5.86-.31,1.89,2.58,2.7,2.89.8.57-3.46-1.15-6.87-4.21-8.6-3.33-1.88-7.43-1.48-10.83,0-3.58,1.56-6.53,4.31-9.22,7.08-2.93,3.01-5.56,6.3-7.9,9.79-1.08,1.61,1.52,3.11,2.59,1.51h0Z"/><path class="cls-2" d="M46.21,43c-8.51-1.93-16.79-4.84-24.65-8.65"/><path class="cls-2" d="M46.61,41.55c-8.39-1.92-16.54-4.76-24.29-8.5-1.73-.83-3.25,1.75-1.51,2.59,7.99,3.85,16.36,6.82,25,8.8,1.88.43,2.68-2.46.8-2.89h0Z"/></g></svg>