<svg width="142" height="88" viewBox="0 0 142 88" fill="none" xmlns="http://www.w3.org/2000/svg">
<path d="M1.46046 21.3026C1.02607 24.1502 0.591692 26.9979 0.157307 29.8455C0.109042 30.2316 0.253836 30.6177 0.688221 30.7625C1.02608 30.859 1.50872 30.666 1.55699 30.2316C1.99137 27.384 2.42576 24.5363 2.86014 21.6887C2.90841 21.3026 2.76361 20.9165 2.32923 20.7717C1.99138 20.6751 1.50872 20.8682 1.46046 21.3026Z" fill="#FFF616"/>
<path d="M2.47349 22.3645C5.70724 22.7506 8.98926 22.8954 12.2713 22.7023C13.1883 22.6541 13.1883 21.2061 12.2713 21.2544C8.98926 21.4475 5.70724 21.3027 2.47349 20.9165C2.08737 20.8683 1.74951 21.3027 1.74951 21.6405C1.74951 22.0749 2.08737 22.3162 2.47349 22.3645Z" fill="#FFF616"/>
<path d="M11.645 22.9439C12.6585 25.1641 13.7204 27.3843 14.927 29.508C15.3614 30.3285 16.6163 29.6045 16.1819 28.784C15.0235 26.6603 13.9134 24.4402 12.8999 22.22C12.7551 21.8821 12.2241 21.7856 11.8863 21.9786C11.5002 22.1717 11.4519 22.6061 11.645 22.9922V22.9439Z" fill="#FFF616"/>
<path d="M0.687776 31.1487C15.8912 30.1834 31.0947 31.7279 46.3464 31.7279C50.642 31.7279 54.8893 31.5831 59.1849 31.2452C60.1019 31.197 60.1019 29.749 59.1849 29.7973C43.9814 31.0039 28.778 29.5077 13.5263 29.3629C9.23067 29.3629 4.98336 29.3629 0.687776 29.6525C-0.229259 29.7008 -0.229259 31.1487 0.687776 31.1004V31.1487Z" fill="#FFF616"/>
<path d="M16.0367 28.7839C15.9402 26.6603 16.2298 24.5849 16.8572 22.5577L16.1815 23.0887C19.4635 23.0887 22.6973 23.0887 25.931 23.0887L25.3036 22.7508C26.5584 25.164 28.0547 27.4808 29.6957 29.6527C30.2266 30.3767 31.5297 29.6527 30.9506 28.9287C29.3096 26.7568 27.8133 24.4401 26.5584 22.0268C26.4619 21.7855 26.1723 21.689 25.931 21.689C22.649 21.689 19.4152 21.689 16.1815 21.689C15.8436 21.689 15.554 21.9303 15.5058 22.2199C14.8783 24.3435 14.5887 26.612 14.637 28.8322C14.637 29.7492 16.1332 29.7492 16.085 28.8322L16.0367 28.7839Z" fill="#FFF616"/>
<path d="M29.8403 21.834C29.3576 24.1024 29.1646 26.4674 29.1646 28.7841C29.1646 29.7011 30.6125 29.7011 30.6125 28.7841C30.6125 26.5639 30.7573 24.392 31.1917 22.2201C31.2882 21.834 31.0952 21.4478 30.6608 21.303C30.3229 21.2065 29.8403 21.3996 29.7437 21.834H29.8403Z" fill="#FFF616"/>
<path d="M30.6116 22.1234C34.1349 22.2682 37.61 22.4612 41.1334 22.606C42.0504 22.606 42.0504 21.2063 41.1334 21.1581C37.61 21.0133 34.1349 20.8202 30.6116 20.6754C29.6946 20.6754 29.6946 22.0751 30.6116 22.1234Z" fill="#FFF616"/>
<path d="M40.7468 22.4128C41.5674 24.7295 42.3879 26.998 43.2084 29.3147C43.3532 29.7008 43.691 29.9421 44.1254 29.8456C44.4632 29.7491 44.7528 29.3147 44.6563 28.9286C43.8358 26.6119 43.0153 24.3434 42.1948 22.0267C42.05 21.6406 41.7121 21.3992 41.2778 21.4958C40.9399 21.5923 40.6503 22.0267 40.7468 22.4128Z" fill="#FFF616"/>
<path d="M44.7051 21.6402C43.8363 23.9087 43.2089 26.2254 42.7745 28.5904C42.7262 28.9765 42.871 29.3626 43.3054 29.5074C43.6433 29.6039 44.1259 29.4109 44.2224 28.9765C44.6086 26.6115 45.2843 24.2465 46.153 22.0263C46.2978 21.6402 46.0082 21.2541 45.6221 21.1093C45.1877 21.0128 44.8499 21.2541 44.7051 21.6402Z" fill="#FFF616"/>
<path d="M45.43 22.413H54.8899C55.8069 22.413 55.8069 20.9651 54.8899 20.9651H45.43C44.5129 20.9651 44.5129 22.413 45.43 22.413Z" fill="#FFF616"/>
<path d="M54.3591 22.4611C55.4209 25.0191 56.531 27.5289 57.6411 30.0387C57.7859 30.3765 58.3168 30.4731 58.6546 30.28C59.0408 30.0869 59.089 29.6525 58.896 29.2664C57.7859 26.9014 56.7723 24.4882 55.7587 22.0267C55.6139 21.6406 55.2761 21.3992 54.8417 21.4958C54.5039 21.5923 54.166 22.0267 54.3108 22.4128L54.3591 22.4611Z" fill="#FFF616"/>
<path d="M57.784 21.7854C57.6874 24.6813 57.8805 27.5772 58.4597 30.4249C58.5079 30.811 58.9906 31.004 59.3767 30.9558C59.7628 30.8592 59.9559 30.4249 59.9076 30.0387C59.3767 27.3359 59.1836 24.5365 59.3284 21.7854C59.3284 20.8684 57.9288 20.8684 57.8805 21.7854H57.784Z" fill="#FFF616"/>
<path d="M58.7029 22.3645C62.2745 22.268 65.8461 22.1715 69.4177 22.0749C70.3348 22.0749 70.3348 20.5787 69.4177 20.627C65.8461 20.7235 62.2745 20.8201 58.7029 20.9166C57.7859 20.9166 57.7859 22.4128 58.7029 22.3645Z" fill="#FFF616"/>
<path d="M58.7029 31.0038C62.6606 31.0521 66.6184 31.0521 70.5761 30.9556C71.4931 30.9556 71.4931 29.4593 70.5761 29.5076C66.6184 29.6041 62.6606 29.6041 58.7029 29.5559C57.7859 29.5559 57.7859 31.0038 58.7029 31.0038Z" fill="#FFF616"/>
<path d="M68.6455 21.9784C68.742 23.4264 69.2247 24.7778 69.7073 26.0809C70.19 27.3841 70.6244 28.6873 70.5761 30.0869C70.5761 31.004 71.9758 31.004 72.0241 30.0869C72.1206 27.2393 70.3348 24.7778 70.1417 21.9784C70.0935 21.0614 68.6455 21.0614 68.6938 21.9784H68.6455Z" fill="#FFF616"/>
<path d="M72.1688 21.4475C71.7826 24.0055 71.3965 26.5636 71.0587 29.1216C71.0104 29.5077 71.1552 29.8939 71.5896 30.0386C71.9274 30.1352 72.4101 29.9421 72.5066 29.5077C72.8927 26.9497 73.2789 24.3916 73.6167 21.8336C73.665 21.4475 73.5202 21.0614 73.0858 20.9166C72.7479 20.82 72.2653 21.0131 72.1688 21.4475Z" fill="#FFF616"/>
<path d="M72.9881 22.3162C76.1736 22.2679 79.4073 22.4127 82.5928 22.7988C82.9789 22.7988 83.3168 22.4127 83.3168 22.0748C83.3168 21.737 82.9789 21.3991 82.5928 21.3509C79.4073 20.9647 76.2218 20.8199 72.9881 20.8682C72.071 20.8682 72.071 22.3162 72.9881 22.3162Z" fill="#FFF616"/>
<path d="M82.256 22.2193C83.2696 24.7291 84.1384 27.2871 84.7658 29.8935C85.0071 30.8105 86.3585 30.4244 86.1655 29.5073C85.538 26.901 84.7175 24.2947 83.6557 21.8332C83.5109 21.4471 83.1731 21.2058 82.7387 21.3023C82.4008 21.3988 82.063 21.8332 82.2078 22.2193H82.256Z" fill="#FFF616"/>
<path d="M71.8787 30.3284C80.9042 31.0041 89.9298 31.1972 98.9553 31.0041C99.8724 31.0041 99.8724 29.5562 98.9553 29.5562C89.9298 29.7492 80.9042 29.5562 71.8787 28.8805C70.9617 28.8322 70.9617 30.2801 71.8787 30.3284Z" fill="#FFF616"/>
<path d="M85.44 21.7854C85.4883 24.1504 85.3917 26.5637 85.0539 28.9286C85.0056 29.3148 85.1504 29.7009 85.5365 29.8457C85.8744 29.9422 86.357 29.7492 86.4536 29.3148C86.7914 26.805 86.9845 24.2952 86.9362 21.7854C86.9362 20.8684 85.4883 20.8684 85.4883 21.7854H85.44Z" fill="#FFF616"/>
<path d="M86.9378 22.3644C90.2198 22.1231 93.5018 22.2679 96.7356 22.847C97.6526 22.9918 98.0387 21.5921 97.1217 21.4473C93.7431 20.8682 90.3646 20.6751 86.9378 20.9164C86.0207 20.9647 86.0207 22.4126 86.9378 22.3644Z" fill="#FFF616"/>
<path d="M96.5426 22.7511C97.3149 25.0195 98.0871 27.2397 98.9076 29.5082C99.0524 29.8943 99.3902 30.1356 99.8246 30.0391C100.162 29.9425 100.452 29.5082 100.307 29.122C99.535 26.8536 98.7628 24.6334 97.9423 22.3649C97.7975 21.9788 97.4596 21.7375 97.0253 21.834C96.6874 21.9306 96.3978 22.3649 96.5426 22.7511Z" fill="#FFF616"/>
<path d="M100.065 21.8338C99.4372 24.1023 99.0511 26.419 98.9546 28.784C98.9546 29.701 100.354 29.701 100.403 28.784C100.499 26.5638 100.837 24.3918 101.464 22.2199C101.706 21.3029 100.306 20.9168 100.065 21.8338Z" fill="#FFF616"/>
<path d="M101.417 22.4615C104.41 22.6545 107.45 22.7993 110.443 22.9924C111.36 23.0406 111.36 21.5927 110.443 21.5444C107.45 21.3514 104.41 21.2066 101.417 21.0135C100.5 20.9652 100.5 22.4132 101.417 22.4615Z" fill="#FFF616"/>
<path d="M110.249 22.7992C110.973 25.1159 111.697 27.4326 112.421 29.7493C112.711 30.6181 114.11 30.2802 113.821 29.3632C113.097 27.0465 112.373 24.7298 111.649 22.4131C111.359 21.5443 109.96 21.8821 110.249 22.7992Z" fill="#FFF616"/>
<path d="M99.7283 30.0389C100.645 30.0389 100.645 28.5909 99.7283 28.5909C98.8113 28.5909 98.8113 30.0389 99.7283 30.0389Z" fill="#FFF616"/>
<path d="M99.3416 30.3763C103.83 30.9072 108.367 30.9555 112.904 30.6176C113.821 30.5693 113.821 29.1214 112.904 29.1696C108.367 29.5075 103.878 29.4592 99.3416 28.9283C98.4246 28.8318 98.4246 30.2797 99.3416 30.3763Z" fill="#FFF616"/>
<path d="M114.11 21.8335C113.869 24.5363 113.531 27.2391 113.049 29.8937C113 30.2798 113.145 30.666 113.531 30.8108C113.869 30.9073 114.352 30.7142 114.448 30.2798C114.931 27.4805 115.317 24.6811 115.558 21.8335C115.558 21.4474 115.22 21.1095 114.834 21.1095C114.448 21.1095 114.159 21.4474 114.11 21.8335Z" fill="#FFF616"/>
<path d="M114.787 22.7023C118.262 22.8471 121.689 22.6057 125.116 21.9783C126.033 21.8335 125.647 20.4338 124.73 20.5786C121.448 21.1578 118.118 21.3991 114.787 21.2543C113.87 21.2543 113.87 22.654 114.787 22.7023Z" fill="#FFF616"/>
<path d="M124.246 22.4132C125.501 24.5851 126.466 26.9018 127.094 29.3151C127.335 30.2321 128.735 29.846 128.494 28.929C127.818 26.3709 126.804 23.9577 125.501 21.641C125.018 20.8205 123.764 21.5444 124.246 22.3649V22.4132Z" fill="#FFF616"/>
<path d="M114.399 30.6177C118.598 30.7142 122.797 30.666 126.996 30.5695C127.913 30.5695 127.913 29.0732 126.996 29.1215C122.797 29.218 118.598 29.2663 114.399 29.1698C113.482 29.1698 113.482 30.6177 114.399 30.6177Z" fill="#FFF616"/>
<path d="M128.157 21.6407C128.253 24.0057 128.06 26.3224 127.481 28.5909C127.24 29.5079 128.639 29.894 128.881 28.977C129.46 26.5637 129.701 24.1022 129.605 21.6407C129.508 19.1792 128.108 20.7237 128.157 21.6407Z" fill="#FFF616"/>
<path d="M128.687 21.3995C132.114 21.7856 135.589 21.9787 139.016 21.9787C139.933 21.9787 139.933 20.5307 139.016 20.5307C135.54 20.5307 132.114 20.2894 128.687 19.9515C128.301 19.9515 127.963 20.3377 127.963 20.6755C127.963 21.1099 128.301 21.3512 128.687 21.3995Z" fill="#FFF616"/>
<path d="M139.014 22.027C139.304 24.585 139.787 27.0948 140.462 29.5563C140.704 30.4733 142.103 30.0872 141.862 29.1702C141.235 26.8052 140.752 24.4402 140.462 22.027C140.462 21.6408 140.173 21.303 139.738 21.303C139.304 21.303 138.966 21.6408 139.014 22.027Z" fill="#FFF616"/>
<path d="M139.256 22.1715C140.173 22.1715 140.173 20.7235 139.256 20.7235C138.339 20.7235 138.339 22.1715 139.256 22.1715Z" fill="#FFF616"/>
<path d="M127.189 30.5698C131.678 31.0524 136.215 31.1972 140.752 31.0524C141.669 31.0524 141.669 29.5562 140.752 29.6045C136.215 29.7492 131.726 29.6045 127.189 29.1218C126.272 29.0253 126.272 30.4732 127.189 30.5698Z" fill="#FFF616"/>
<path d="M1.21779 31.5349C3.96889 33.0794 6.81653 34.3825 9.76069 35.5409C10.1468 35.6857 10.5812 35.3961 10.6295 35.01C10.726 34.5756 10.4847 34.2377 10.0985 34.0929C7.29918 32.9828 4.54808 31.6797 1.8935 30.2317C1.073 29.7974 0.349024 31.004 1.16953 31.4866L1.21779 31.5349Z" fill="#FFF616"/>
<path d="M16.036 31.3416C13.671 31.3898 11.4991 32.9826 10.8234 35.2993C10.1477 37.616 11.0647 40.0775 13.0436 41.4772C14.9259 42.7804 17.3874 42.8769 19.3663 41.7668C21.3451 40.6567 22.9379 38.3882 22.8414 36.0715C22.7931 34.6718 22.0209 33.4652 20.8142 32.7412C19.5111 31.9207 17.9183 31.8242 16.4221 31.7277C15.5051 31.6794 15.5051 33.1274 16.4221 33.1756C18.1597 33.2722 20.8142 33.5135 21.2969 35.6371C21.683 37.3264 20.5246 39.257 19.1732 40.2223C17.8218 41.1876 16.036 41.4289 14.4915 40.705C12.947 39.981 11.8852 38.3882 12.03 36.5542C12.1748 34.4788 13.9606 32.9343 16.036 32.8378C16.953 32.8378 16.953 31.3416 16.036 31.3898V31.3416Z" fill="#FFF616"/>
<path d="M21.973 40.7534C32.35 44.7594 42.5822 49.1032 52.6213 53.8815C55.4689 55.2329 58.2683 56.5843 61.0676 57.984C61.8881 58.4184 62.6121 57.1635 61.7916 56.7291C51.7525 51.7095 41.5203 47.1244 31.1434 42.8771C28.1992 41.6704 25.255 40.5121 22.3109 39.3537C21.4421 39.0159 21.056 40.4156 21.9248 40.7534H21.973Z" fill="#FFF616"/>
<path d="M29.5018 31.5347C30.2258 32.5482 31.1911 33.3687 32.3494 33.8997C32.5425 33.9962 32.6873 34.0445 32.9286 33.9479C33.1217 33.8997 33.2665 33.7549 33.363 33.6101C33.5561 33.2722 33.4595 32.7896 33.1217 32.5965C32.8804 32.5 32.639 32.3552 32.3977 32.2104C32.3012 32.1621 32.1564 32.0656 32.0599 31.9691C32.0116 31.9691 31.9633 31.8725 31.8668 31.8243C31.9151 31.8243 31.9633 31.9208 31.8668 31.8243C31.8668 31.8243 31.8185 31.8243 31.7703 31.776C31.5772 31.5829 31.3841 31.4381 31.1911 31.2451C31.0946 31.1486 30.998 31.052 30.9015 30.9555C30.9015 30.9072 30.805 30.859 30.805 30.8107C30.805 30.8107 30.7567 30.7624 30.7084 30.7142C30.6119 30.5694 30.4671 30.4246 30.2741 30.3763C30.081 30.328 29.8879 30.3763 29.6949 30.4246C29.4053 30.6176 29.2122 31.1003 29.4535 31.4381L29.5018 31.5347Z" fill="#FFF616"/>
<path d="M35.9684 30.9556C33.6034 31.7761 31.8176 33.8998 31.6245 36.4578C31.3832 39.3537 33.4103 41.4774 35.8718 42.6358C37.0302 43.1667 38.2851 43.408 39.54 43.0701C40.6501 42.7805 41.7119 42.1048 42.4841 41.2361C44.2217 39.3537 44.8008 36.4096 43.6425 34.0929C42.3393 31.5348 39.2504 30.9074 36.6923 30.6178C35.7753 30.5212 35.7753 31.9692 36.6923 32.0657C38.5264 32.2588 40.6018 32.5966 41.8567 33.9963C43.2081 35.4925 43.015 37.9058 42.0015 39.4985C41.0362 40.9947 39.2021 42.1048 37.368 41.6222C35.4374 41.0913 33.3138 39.5468 33.0725 37.4231C32.7829 35.2029 34.2308 33.031 36.3545 32.307C37.2233 32.0175 36.8371 30.6178 35.9684 30.9074V30.9556Z" fill="#FFF616"/>
<path d="M42.7756 41.1395C45.9611 44.2767 49.7257 46.6899 53.4904 49.0549C57.6412 51.7095 61.792 54.3641 65.9428 57.0186C66.715 57.5013 67.439 56.2947 66.6667 55.7637C62.5642 53.1574 58.5099 50.5511 54.4074 47.9448C50.691 45.5798 46.9746 43.2149 43.7891 40.1259C43.1134 39.4502 42.0999 40.512 42.7756 41.1395Z" fill="#FFF616"/>
<path d="M57.0133 31.824C61.1159 40.3669 65.0736 49.0064 68.9348 57.6941C69.3209 58.5628 70.5758 57.7906 70.1897 56.9701C66.3767 48.2824 62.3707 39.6912 58.2682 31.1001C57.8821 30.2796 56.6272 31.0035 57.0133 31.824Z" fill="#FFF616"/>
<path d="M84.2842 30.7145C80.6643 39.4022 76.9962 48.0899 73.3763 56.7776C73.2315 57.1637 73.5211 57.5498 73.9072 57.6946C74.3416 57.7911 74.6312 57.5498 74.8243 57.212C78.4441 48.5243 82.1123 39.8366 85.7321 31.1489C85.8769 30.7628 85.5874 30.3767 85.2495 30.2319C84.8151 30.1353 84.5255 30.3767 84.3325 30.7628L84.2842 30.7145Z" fill="#FFF616"/>
<path d="M97.3135 40.5117C90.8943 45.8209 84.5233 51.13 78.104 56.4874C77.3801 57.0666 78.3936 58.1284 79.1176 57.501C85.5368 52.1918 91.9078 46.8827 98.3271 41.5253C99.051 40.9461 98.0375 39.8843 97.3135 40.5117Z" fill="#FFF616"/>
<path d="M101.995 31.0037C99.678 31.0037 97.5061 32.7895 97.0717 35.1062C96.5891 37.5677 97.8439 40.0775 99.8228 41.4772C101.657 42.8286 104.456 43.263 106.387 41.8633C108.317 40.4636 108.945 37.7608 108.269 35.4923C107.497 32.7412 104.698 30.5693 101.802 31.5828C100.933 31.8724 101.319 33.2721 102.188 32.9825C106.194 31.5828 108.559 37.616 106.001 40.2705C104.746 41.5737 102.67 41.4289 101.174 40.6084C99.5815 39.7396 98.3749 38.0021 98.3749 36.168C98.3749 34.2374 99.9676 32.4033 101.946 32.4516C102.864 32.4516 102.864 31.0037 101.946 31.0037H101.995Z" fill="#FFF616"/>
<path d="M108.029 33.9484C109.477 33.0314 110.877 32.1626 112.325 31.2456C112.663 31.0525 112.808 30.5699 112.566 30.232C112.325 29.8942 111.939 29.7494 111.601 29.9907C110.153 30.9077 108.753 31.7765 107.305 32.6935C106.968 32.8866 106.823 33.3692 107.064 33.7071C107.305 34.0449 107.692 34.1897 108.029 33.9484Z" fill="#FFF616"/>
<path d="M80.3719 57.7427C90.7972 54.2676 101.029 50.2134 111.068 45.6282C113.916 44.3251 116.764 42.9736 119.563 41.574C120.384 41.1396 119.66 39.8847 118.839 40.3191C109.041 45.1456 99.0505 49.4894 88.77 53.2541C85.8741 54.3159 82.93 55.3777 79.9858 56.343C79.117 56.6326 79.5032 58.0323 80.3719 57.7427Z" fill="#FFF616"/>
<path d="M126.465 31.2935C123.859 31.0522 120.576 31.5348 119.418 34.2377C118.887 35.4443 118.887 36.9888 119.032 38.2437C119.177 39.402 119.515 40.5604 120.335 41.4292C121.3 42.3945 122.604 42.6358 123.907 42.684C125.21 42.7323 126.561 42.684 127.816 42.2979C130.326 41.4774 132.015 39.0642 131.677 36.4096C131.34 33.755 129.216 31.4383 126.465 31.197C125.548 31.1487 125.548 32.5967 126.465 32.6449C128.251 32.7897 129.699 34.2859 130.133 35.9752C130.616 37.9058 129.602 40.0295 127.72 40.8017C125.837 41.5739 125.741 41.2844 124.776 41.2844C123.81 41.2844 122.604 41.2844 121.687 40.7052C120.19 39.6916 120.19 37.1336 120.48 35.5408C120.963 32.7897 124.245 32.5484 126.465 32.7415C127.382 32.838 127.382 31.39 126.465 31.2935Z" fill="#FFF616"/>
<path d="M131.003 35.2028C134.478 34.0444 137.856 32.6447 141.138 31.0037C141.959 30.5693 141.235 29.3627 140.414 29.7488C137.229 31.3416 133.947 32.693 130.617 33.8031C129.748 34.0927 130.134 35.4924 131.003 35.2028Z" fill="#FFF616"/>
<path d="M61.8885 58.0324C68.1629 58.2255 74.4373 58.322 80.7118 58.2255C81.6288 58.2255 81.6288 56.7775 80.7118 56.7775C74.4373 56.8258 68.1629 56.7775 61.8885 56.5845C60.9714 56.5845 60.9714 57.9842 61.8885 58.0324Z" fill="#FFF616"/>
<path d="M61.936 58.1289V63.6311C61.936 64.0172 62.2739 64.4034 62.66 64.3551C66.9073 64.0655 71.1546 64.8377 75.402 64.6929C76.4638 64.6929 77.4773 64.5482 78.5392 64.4034C79.3597 64.3068 80.518 64.2586 81.1937 63.7276C81.8695 63.1967 81.8212 62.1832 81.8695 61.3627C81.9177 60.3008 81.966 59.1907 82.0625 58.0806C82.1108 57.1636 80.6628 57.1636 80.6146 58.0806C80.5663 58.9977 80.518 59.963 80.4698 60.88C80.4698 61.3627 80.4698 61.797 80.3732 62.2797C80.3732 62.6658 80.1802 62.6176 79.7941 62.7141C77.9117 63.1002 75.9811 63.245 74.0023 63.1967C70.2376 63.1485 66.4729 62.5693 62.66 62.8106L63.384 63.5346V58.0324C63.384 57.1153 61.936 57.1153 61.936 58.0324V58.1289Z" fill="#FFF616"/>
<path d="M68.3561 65.4653V66.4306C68.3561 66.8649 68.6939 67.1063 69.08 67.1545C70.4797 67.3476 71.9277 67.3959 73.3273 67.3476C73.9548 67.3476 74.8718 67.3959 75.2579 66.8167C75.4027 66.5754 75.451 66.2858 75.451 66.0445C75.451 65.9479 75.451 65.8514 75.451 65.7549V65.6583C75.451 65.7066 75.3545 65.9479 75.2579 65.9962C75.5958 65.8031 75.6923 65.3205 75.4993 65.0309C75.3062 64.693 74.8718 64.5965 74.4857 64.7896C73.9548 65.0791 73.9548 65.6101 73.9548 66.141C73.9548 66.141 73.9548 66.2375 73.9548 66.2858C73.9548 66.2858 73.9548 66.2375 73.9548 66.1892C73.9548 66.1892 74.1961 65.9962 74.2444 65.9962C74.2444 65.9962 74.0996 65.9962 74.0513 65.9962C73.7135 65.9962 73.3756 65.9962 73.0378 65.9962C71.6863 65.9962 70.3349 65.9962 69.0318 65.8031L69.7557 66.5271V65.5618C69.7557 64.6448 68.2595 64.6448 68.3078 65.5618L68.3561 65.4653Z" fill="#FFF616"/>
<path d="M68.0179 66.8649C64.8806 69.3746 65.122 73.7667 66.1355 77.2418C66.7147 79.1724 67.2939 81.1513 68.3557 82.8406C69.321 84.3368 70.5759 85.6882 70.9138 87.474C71.0586 88.2462 72.0721 88.1014 72.3134 87.474C73.0374 85.5434 73.8097 83.7093 74.7267 81.8753C75.6437 80.0412 76.609 78.4485 77.5261 76.6627C78.4431 74.8769 78.8292 73.1876 78.4431 71.3052C78.25 70.4365 77.9122 69.5677 77.4778 68.7472C77.0434 67.9267 76.609 66.9614 75.9333 66.2857C75.2576 65.61 74.244 66.6718 74.9198 67.2993C75.5472 67.8784 75.9333 68.892 76.3194 69.6642C76.7056 70.4365 76.9951 71.257 77.0917 72.0775C77.333 73.8633 76.4642 75.5043 75.6437 77.0005C73.8097 80.2343 72.2169 83.5645 70.9138 87.0396H72.3134C71.9756 85.3503 70.962 84.0472 69.9967 82.6475C68.9349 81.103 68.3557 79.4138 67.7765 77.628C66.763 74.4425 65.9425 70.1952 68.9832 67.7819C69.7071 67.2027 68.6936 66.1892 67.9696 66.7683L68.0179 66.8649Z" fill="#FFF616"/>
<path d="M66.4253 74.9249C69.8521 76.035 73.5202 76.0832 76.9953 75.1179C77.9123 74.8766 77.5262 73.4769 76.6092 73.7182C73.3754 74.6353 69.9969 74.5387 66.8114 73.5252C65.9426 73.2356 65.5565 74.6353 66.4253 74.9249Z" fill="#FFF616"/>
<path d="M72.4581 30.4729C69.8518 30.0385 66.9559 30.9556 65.3631 33.1275C63.7704 35.2994 63.9634 38.3401 65.6527 40.4155C67.342 42.4909 70.3344 43.2631 72.8924 42.8288C74.2439 42.5874 75.6435 41.9117 76.464 40.7534C77.2846 39.595 77.3811 37.8575 77.4776 36.4578C77.6224 33.2723 75.1126 30.9073 72.0719 30.4729C71.6858 30.4247 71.348 30.859 71.348 31.1969C71.348 31.6313 71.6858 31.8726 72.0719 31.9209C73.9543 32.1622 75.8366 33.6584 76.0297 35.589C76.0779 36.2647 76.0297 36.9404 75.9331 37.6161C75.8849 38.1953 75.7883 38.7262 75.5953 39.2571C75.2092 40.4155 74.1956 40.9947 73.0855 41.2843C71.1549 41.8152 68.7899 41.3808 67.2937 40.0294C65.7975 38.678 65.2183 36.3612 66.1836 34.5272C67.2454 32.5001 69.8518 31.5347 72.0719 31.9209C72.989 32.0657 73.3751 30.666 72.4581 30.5212V30.4729Z" fill="#FFF616"/>
<path d="M4.26316 5.97432H6.39542V13.9647L14.5205 5.97432H17.2812L10.5253 12.4385L17.5506 22H14.8572L9.06637 13.8974L6.39542 16.3888V22H4.26316V5.97432ZM24.9123 15.3787H30.344L27.673 7.90458H27.6282L24.9123 15.3787ZM26.5059 5.97432H28.8626L35.1248 22H32.768L31.0173 17.1743H24.239L22.4434 22H20.2662L26.5059 5.97432ZM39.6236 5.97432H47.1651C48.6913 5.97432 49.8809 6.3484 50.7338 7.09657C51.6017 7.84473 52.0356 8.86971 52.0356 10.1715C52.0356 11.1441 51.8112 11.997 51.3623 12.7302C50.9283 13.4634 50.2251 13.9647 49.2524 14.2341V14.2789C49.7163 14.3687 50.0904 14.5184 50.3747 14.7278C50.674 14.9373 50.9059 15.1917 51.0705 15.491C51.25 15.7753 51.3772 16.097 51.452 16.4561C51.5418 16.8152 51.6092 17.1893 51.6541 17.5783C51.684 17.9674 51.7064 18.3639 51.7214 18.7679C51.7364 19.1719 51.7738 19.5685 51.8336 19.9575C51.8935 20.3466 51.9758 20.7206 52.0805 21.0798C52.2002 21.4239 52.3723 21.7307 52.5967 22H50.2176C50.0679 21.8354 49.9632 21.611 49.9033 21.3267C49.8585 21.0423 49.8285 20.7281 49.8136 20.384C49.7986 20.0248 49.7836 19.6433 49.7687 19.2393C49.7537 18.8353 49.7088 18.4387 49.634 18.0497C49.5742 17.6606 49.4993 17.294 49.4096 16.9499C49.3198 16.5908 49.1776 16.284 48.9831 16.0296C48.7886 15.7603 48.5342 15.5508 48.22 15.4012C47.9057 15.2366 47.4868 15.1543 46.9631 15.1543H41.7558V22H39.6236V5.97432ZM46.1999 13.3587C46.6937 13.3587 47.1651 13.3213 47.614 13.2465C48.0629 13.1717 48.4519 13.0295 48.7811 12.82C49.1253 12.5956 49.3946 12.3038 49.5891 11.9447C49.7986 11.5706 49.9033 11.0918 49.9033 10.5082C49.9033 9.70018 49.6789 9.04179 49.23 8.53304C48.7811 8.02429 48.0554 7.76991 47.0528 7.76991H41.7558V13.3587H46.1999ZM57.9065 5.97432H65.448C66.9743 5.97432 68.1639 6.3484 69.0168 7.09657C69.8847 7.84473 70.3186 8.86971 70.3186 10.1715C70.3186 11.1441 70.0941 11.997 69.6452 12.7302C69.2113 13.4634 68.508 13.9647 67.5354 14.2341V14.2789C67.9993 14.3687 68.3734 14.5184 68.6577 14.7278C68.9569 14.9373 69.1889 15.1917 69.3535 15.491C69.533 15.7753 69.6602 16.097 69.735 16.4561C69.8248 16.8152 69.8921 17.1893 69.937 17.5783C69.967 17.9674 69.9894 18.3639 70.0044 18.7679C70.0193 19.1719 70.0567 19.5685 70.1166 19.9575C70.1764 20.3466 70.2587 20.7206 70.3635 21.0798C70.4832 21.4239 70.6553 21.7307 70.8797 22H68.5006C68.3509 21.8354 68.2462 21.611 68.1863 21.3267C68.1414 21.0423 68.1115 20.7281 68.0965 20.384C68.0816 20.0248 68.0666 19.6433 68.0517 19.2393C68.0367 18.8353 67.9918 18.4387 67.917 18.0497C67.8571 17.6606 67.7823 17.294 67.6925 16.9499C67.6028 16.5908 67.4606 16.284 67.2661 16.0296C67.0716 15.7603 66.8172 15.5508 66.503 15.4012C66.1887 15.2366 65.7698 15.1543 65.246 15.1543H60.0388V22H57.9065V5.97432ZM64.4829 13.3587C64.9767 13.3587 65.448 13.3213 65.8969 13.2465C66.3458 13.1717 66.7349 13.0295 67.0641 12.82C67.4082 12.5956 67.6776 12.3038 67.8721 11.9447C68.0816 11.5706 68.1863 11.0918 68.1863 10.5082C68.1863 9.70018 67.9619 9.04179 67.513 8.53304C67.0641 8.02429 66.3384 7.76991 65.3358 7.76991H60.0388V13.3587H64.4829ZM88.9831 16.2092C88.9831 18.2592 88.437 19.8004 87.3446 20.8329C86.2523 21.8504 84.6961 22.3591 82.6761 22.3591C80.6112 22.3591 78.9951 21.8728 77.828 20.9002C76.6758 19.9126 76.0997 18.349 76.0997 16.2092V5.97432H78.232V16.2092C78.232 17.6457 78.6136 18.738 79.3767 19.4862C80.1398 20.2194 81.2396 20.586 82.6761 20.586C84.0378 20.586 85.0702 20.2194 85.7735 19.4862C86.4917 18.738 86.8509 17.6457 86.8509 16.2092V5.97432H88.9831V16.2092ZM104.575 10.6653C104.455 9.51314 104.036 8.68267 103.318 8.17392C102.615 7.65021 101.71 7.38835 100.602 7.38835C100.154 7.38835 99.7121 7.43324 99.2782 7.52302C98.8442 7.6128 98.4552 7.76243 98.111 7.97192C97.7818 8.1814 97.5125 8.46571 97.303 8.82483C97.1085 9.16898 97.0112 9.60292 97.0112 10.1266C97.0112 10.6204 97.1534 11.0244 97.4377 11.3387C97.7369 11.6379 98.126 11.8848 98.6048 12.0793C99.0986 12.2739 99.6522 12.4385 100.266 12.5731C100.879 12.6928 101.5 12.8275 102.129 12.9771C102.772 13.1268 103.401 13.3063 104.014 13.5158C104.628 13.7103 105.174 13.9797 105.653 14.3238C106.146 14.668 106.535 15.1019 106.82 15.6256C107.119 16.1494 107.269 16.8077 107.269 17.6008C107.269 18.4537 107.074 19.1869 106.685 19.8004C106.311 20.3989 105.825 20.8927 105.226 21.2818C104.628 21.6558 103.954 21.9252 103.206 22.0898C102.473 22.2693 101.74 22.3591 101.006 22.3591C100.109 22.3591 99.2557 22.2469 98.4477 22.0224C97.6546 21.798 96.9514 21.4613 96.3379 21.0124C95.7393 20.5486 95.2605 19.965 94.9014 19.2617C94.5572 18.5435 94.3852 17.6981 94.3852 16.7254H96.4052C96.4052 17.3988 96.5324 17.9824 96.7868 18.4761C97.0561 18.955 97.4003 19.3515 97.8192 19.6657C98.2532 19.98 98.7544 20.2119 99.3231 20.3615C99.8917 20.5112 100.475 20.586 101.074 20.586C101.553 20.586 102.031 20.5411 102.51 20.4513C103.004 20.3615 103.445 20.2119 103.834 20.0024C104.224 19.778 104.538 19.4787 104.777 19.1046C105.017 18.7305 105.136 18.2517 105.136 17.6681C105.136 17.1145 104.987 16.6656 104.687 16.3214C104.403 15.9773 104.014 15.7005 103.52 15.491C103.041 15.2665 102.495 15.087 101.882 14.9523C101.268 14.8176 100.64 14.683 99.9964 14.5483C99.3679 14.3986 98.747 14.2341 98.1335 14.0545C97.52 13.86 96.9663 13.6131 96.4725 13.3138C95.9937 12.9996 95.6047 12.6031 95.3054 12.1242C95.0211 11.6304 94.879 11.0169 94.879 10.2837C94.879 9.47573 95.0435 8.77994 95.3727 8.19637C95.7019 7.59784 96.1359 7.11153 96.6745 6.73745C97.2282 6.3484 97.8492 6.0641 98.5375 5.88454C99.2408 5.69002 99.959 5.59276 100.692 5.59276C101.515 5.59276 102.278 5.69002 102.982 5.88454C103.685 6.07906 104.298 6.38581 104.822 6.80478C105.361 7.22375 105.78 7.75495 106.079 8.39837C106.393 9.02683 106.565 9.78248 106.595 10.6653H104.575ZM112.777 5.97432H123.843V7.76991H114.91V12.8649H123.237V14.6605H114.91V20.2044H123.91V22H112.777V5.97432ZM129.416 5.97432H131.549V20.2044H140.033V22H129.416V5.97432Z" fill="#FFF616"/>
</svg>
