<?xml version="1.0" encoding="UTF-8"?><svg id="Lag_1" xmlns="http://www.w3.org/2000/svg" width="190" height="150" viewBox="0 0 190 150"><defs><style>.cls-1{fill:#fcee21;stroke-width:0px;}</style></defs><g id="Ticket_gul"><path class="cls-1" d="M63.36,134.61c-7.52,4.44-15.09,8.78-22.73,13.01l2.26,1.3c.38-5.2,1.57-10.27,3.45-15.13.45-1.16-.84-2.04-1.85-1.85-7.7,1.49-15.5,2.35-23.34,2.61l1.45,1.9c3.15-7.62,7.46-14.78,12.7-21.14.68-.83.52-2.22-.66-2.51-8.05-1.98-15.76-5.07-22.96-9.19l.3,2.36c4.41-3.63,8.82-7.26,13.23-10.89.94-.77.3-2.17-.66-2.51-6.9-2.4-13.49-5.54-19.72-9.36l.3,2.36c1.97-1.89,4.48-3.06,7.22-3.28,1.91-.15,1.93-3.15,0-3-3.54.28-6.77,1.69-9.34,4.16-.71.68-.5,1.86.3,2.36,6.44,3.95,13.3,7.18,20.43,9.66l-.66-2.51c-4.41,3.63-8.82,7.26-13.23,10.89-.75.62-.47,1.91.3,2.36,7.41,4.25,15.38,7.45,23.67,9.5l-.66-2.51c-5.6,6.8-10.11,14.33-13.47,22.46-.37.9.56,1.93,1.45,1.9,8.1-.27,16.17-1.18,24.13-2.72-.62-.62-1.23-1.23-1.85-1.85-1.98,5.11-3.16,10.46-3.56,15.93-.09,1.18,1.33,1.81,2.26,1.3,7.64-4.23,15.21-8.57,22.73-13.01,1.66-.98.15-3.58-1.51-2.59h0Z"/><path class="cls-1" d="M10.02,84.12c8.59-4.37,16.69-9.58,24.82-14.73s16.55-9.98,24.75-15.09c16.6-10.35,33.02-20.98,49.18-31.99,9.1-6.2,18.11-12.51,27.05-18.93l-2.26-1.3c.76,5.79.02,11.69-2.34,17.05-.54,1.23.34,2.45,1.69,2.2,7.7-1.41,15.39-2.82,23.09-4.23l-1.9-1.45c-.44,6.63-.88,13.25-1.32,19.88-.05.81.73,1.51,1.5,1.5,5.56-.04,11.11-.08,16.67-.13l-1.5-1.5c-.64,5.14-1.27,10.27-1.91,15.41-.1.83.77,1.46,1.5,1.5,5.91.31,11.83.61,17.74.92-.43-.75-.86-1.5-1.3-2.26-10.5,14.19-25.55,23.95-40.52,32.83-17.4,10.33-34.44,21.22-51.45,32.18-9.64,6.21-19.4,12.24-29.27,18.09-1.66.98-.15,3.58,1.51,2.59,17.7-10.5,34.87-21.83,52.27-32.82,8.65-5.46,17.36-10.84,26.14-16.08,7.71-4.6,15.42-9.22,22.64-14.57,8-5.93,15.33-12.68,21.27-20.71.72-.98-.27-2.2-1.3-2.26-5.91-.31-11.83-.61-17.74-.92l1.5,1.5c.64-5.14,1.27-10.27,1.91-15.41.1-.8-.77-1.51-1.5-1.5-5.56.04-11.11.08-16.67.13l1.5,1.5c.44-6.63.88-13.25,1.32-19.88.07-1.05-1.01-1.61-1.9-1.45-7.7,1.41-15.39,2.82-23.09,4.23l1.69,2.2c2.58-5.84,3.59-12.22,2.75-18.56-.13-.99-1.22-2.04-2.26-1.3-15.77,11.34-31.8,22.32-48.06,32.95-8.26,5.4-16.57,10.71-24.93,15.95-4.21,2.64-8.38,5.39-12.69,7.85-4.19,2.39-8.33,4.87-12.41,7.44-9.11,5.73-18.11,11.67-27.72,16.56-1.72.88-.2,3.46,1.51,2.59h0Z"/><path class="cls-1" d="M25.15,76.56c10.25,15.34,20.06,30.97,30.05,46.49,2.79,4.33,5.6,8.66,8.43,12.96,1.06,1.61,3.66.1,2.59-1.51-10.09-15.32-19.81-30.87-29.8-46.25-2.87-4.42-5.76-8.82-8.69-13.2-1.07-1.6-3.67-.1-2.59,1.51h0Z"/><path class="cls-1" d="M115.79,18.01c13.19,13.52,25.59,27.81,37.05,42.82,3.29,4.3,6.49,8.66,9.63,13.06,1.11,1.56,3.71.06,2.59-1.51-11.1-15.6-23.12-30.53-36.02-44.68-3.64-4-7.36-7.93-11.14-11.81-1.35-1.38-3.47.74-2.12,2.12h0Z"/><path class="cls-1" d="M53.81,86.74c4.47,6.01,8.95,12.01,13.42,18.02.48.65,1.3.98,2.05.54.64-.37,1.02-1.4.54-2.05-4.47-6.01-8.95-12.01-13.42-18.02-.48-.65-1.3-.98-2.05-.54-.64.37-1.02,1.4-.54,2.05h0Z"/><path class="cls-1" d="M46.47,90.72c4.53-3.05,9.06-6.1,13.59-9.15.67-.45.97-1.32.54-2.05-.39-.67-1.38-.99-2.05-.54-4.53,3.05-9.06,6.1-13.59,9.15-.67.45-.97,1.32-.54,2.05.39.67,1.38.99,2.05.54h0Z"/><path class="cls-1" d="M64.2,76.55c4.57,7.01,9.14,14.02,13.72,21.03,1.05,1.61,3.65.11,2.59-1.51-4.57-7.01-9.14-14.02-13.72-21.03-1.05-1.61-3.65-.11-2.59,1.51h0Z"/><path class="cls-1" d="M84.03,65.1c-2.03-.3-4.14-.53-6.19-.34-2.2.2-2.82,1.98-3.08,3.91-.53,3.92.9,7.77,3.02,11.01,1.88,2.87,4.28,6.13,7.39,7.75,2.8,1.46,6.73,1.5,8.94-1.07,1.32-1.54,1.62-3.58,1.85-5.53s.01-3.86-1.34-5.35c-1.3-1.43-3.42.7-2.12,2.12.96,1.06.53,2.95.31,4.22-.25,1.38-.62,2.73-2.02,3.32-2.94,1.25-5.72-1.16-7.53-3.21-2.24-2.54-4.38-5.47-5.25-8.79-.24-.93-.38-1.87-.38-2.83,0-.69-.04-1.82.34-2.45.08-.18.08-.22,0-.11.18,0,.36,0,.55-.02.53-.01,1.05-.02,1.58,0,1.05.03,2.1.11,3.14.27.81.12,1.6-.2,1.85-1.05.2-.7-.25-1.73-1.05-1.85h0Z"/><path class="cls-1" d="M89.82,60.78c5.67,4.79,10.54,10.43,14.43,16.76,1.01,1.64,3.61.14,2.59-1.51-4.02-6.53-9.05-12.41-14.9-17.36-.62-.52-1.51-.61-2.12,0-.54.54-.62,1.6,0,2.12h0Z"/><path class="cls-1" d="M97.81,52c-.08,4.35-.88,8.63-2.32,12.74-.27.76.31,1.64,1.05,1.85.83.23,1.57-.28,1.85-1.05,1.53-4.35,2.34-8.93,2.43-13.54.04-1.93-2.96-1.93-3,0h0Z"/><path class="cls-1" d="M97.31,65.34c2.65-.13,4.97,1.56,7.05,3,2.33,1.61,4.53,3.39,6.6,5.32,1.41,1.31,3.54-.8,2.12-2.12-2.33-2.16-4.81-4.15-7.43-5.94-2.47-1.69-5.22-3.41-8.34-3.26-1.92.1-1.93,3.1,0,3h0Z"/><path class="cls-1" d="M104.61,51.12c3.17,4.06,6.35,8.13,9.52,12.19.79,1.02,1.59,2.03,2.38,3.05.68.87,1.38,2.19,2.65,2.19s1.92-1.14,2.62-1.95c.85-.99,1.71-1.99,2.56-2.98,1.25-1.46-.86-3.59-2.12-2.12-.63.73-1.26,1.47-1.89,2.2-.3.35-.59.69-.89,1.04-.15.17-.3.35-.44.52-.08.1-.47.4-.23.35h.8l-.2-.06.66.39c-.63-.51-1.1-1.32-1.61-1.96-.58-.74-1.15-1.48-1.73-2.22l-3.24-4.16c-2.24-2.86-4.47-5.73-6.71-8.59-.5-.64-1.6-.52-2.12,0-.63.63-.5,1.48,0,2.12h0Z"/><path class="cls-1" d="M113.36,60.04c.29-.34.59-.66.92-.96.16-.15.32-.29.48-.43.08-.07.17-.14.25-.2.14-.12-.26.2-.11.09.05-.04.11-.08.16-.12.72-.52,1.5-.96,2.32-1.3l-.36.15c.2-.08.4-.16.6-.23.37-.13.69-.34.9-.69.19-.32.27-.8.15-1.16-.23-.73-1.05-1.33-1.85-1.05-2.15.77-4.1,2.04-5.59,3.78-.26.31-.44.64-.44,1.06,0,.37.16.81.44,1.06.56.51,1.58.64,2.12,0h0Z"/><path class="cls-1" d="M105.75,50.28c2.72-1.03,5.4-2.19,8.01-3.47.71-.35.96-1.41.54-2.05-.47-.72-1.3-.91-2.05-.54-1.23.6-2.47,1.18-3.72,1.72-.13.06-.27.12-.4.17-.09.04-.18.08-.27.11.13-.06.12-.05-.05.02-.32.13-.63.26-.95.39-.63.26-1.27.51-1.91.75-.73.28-1.31,1.02-1.05,1.85.23.71,1.06,1.35,1.85,1.05h0Z"/><path class="cls-1" d="M119.67,39.91c5.51,5.56,10.08,11.94,13.59,18.94.86,1.73,3.45.21,2.59-1.51-3.61-7.21-8.37-13.82-14.06-19.55-1.36-1.37-3.48.75-2.12,2.12h0Z"/><path class="cls-1" d="M116.77,42.52c2.94-2.01,5.88-4.02,8.82-6.03.65-.44,1-1.34.54-2.05-.41-.64-1.36-1.01-2.05-.54-2.94,2.01-5.88,4.02-8.82,6.03-.65.44-1,1.34-.54,2.05.41.64,1.36,1.01,2.05.54h0Z"/></g></svg>